<svg id="Layer_1" xmlns="http://www.w3.org/2000/svg" xmlns:xlink="http://www.w3.org/1999/xlink" viewBox="0 0 192.2 47.5"><style>.st0{enable-background:new}.st1{fill:#0365b1}.st2{fill:#f15c2b}.st3{fill:#fff}</style><title>expenses-header</title><g id="Layer_1_1_"><g class="st0"><path class="st1" d="M44.9 34.8V5h13.6v4.5H50v7.7h6.5v4.5H50v8.7h9v4.5H44.9zM67 19.2L61.6 5h5l3.1 9.4h.1L72.6 5h5l-5.1 14.2 5.7 15.6h-5L69.8 24h-.1l-3.5 10.8h-5L67 19.2zM81.2 34.8V5h7.3c6.2 0 9.1 2.4 9.1 8.8s-2.9 8.8-9.1 8.8h-2.2v12.2h-5.1zm5-16.5h2c3.3 0 4.3-1 4.3-4.6 0-3.5-1-4.6-4.3-4.6h-2v9.2zM101.6 34.8V5h13.6v4.5h-8.5v7.7h6.5v4.5h-6.5v8.7h9.1v4.5h-14.2zM119.7 34.8V5h4.7l6.2 17h.1V5h4.6v29.8h-4.4l-6.5-18.6h-.1v18.6h-4.6zM149.4 12.3c-.2-2.6-1.6-3.3-2.7-3.3-1.6 0-2.5 1.1-2.5 2.9 0 5.1 10.3 7.5 10.3 15.6 0 4.9-3.3 7.6-8 7.6s-7.4-3.8-7.6-8.2l4.8-.7c.2 3 1.4 4.5 3 4.5 1.8 0 2.9-.9 2.9-2.7 0-5.9-10.3-7.5-10.3-16 0-4.7 2.9-7.4 7.8-7.4 4.1 0 6.6 3 7 7.2l-4.7.5zM158.3 34.8V5h13.6v4.5h-8.5v7.7h6.5v4.5h-6.5v8.7h9.1v4.5h-14.2zM185.6 12.3c-.2-2.6-1.6-3.3-2.7-3.3-1.6 0-2.5 1.1-2.5 2.9 0 5.1 10.3 7.5 10.3 15.6 0 4.9-3.3 7.6-8 7.6s-7.4-3.8-7.6-8.2l4.8-.7c.2 3 1.4 4.5 3 4.5 1.8 0 2.9-.9 2.9-2.7 0-5.9-10.3-7.5-10.3-16 0-4.7 2.9-7.4 7.8-7.4 4.1 0 6.6 3 7 7.2l-4.7.5z"/></g><image width="205" height="200" xlink:href="FEE4E2C17399CD70.png" transform="scale(.2377 .2376)" overflow="visible" opacity=".75"/><path class="st2" d="M4 4h33.6v32.5H4"/><g class="st0"><path class="st3" d="M6.1 25.6v-1.7c2.6-3.9 4.1-6 4.1-7.9 0-1-.4-1.4-1-1.4-.7 0-1 .5-1 1.3v.8h-2v-.6c0-1.8 1.2-3.2 3.1-3.2 1.7 0 2.9 1.3 2.9 2.8 0 2-.6 3.4-3.9 8.1H12v1.8H6.1zM13.7 16.3c0-2.3.9-3.4 3-3.4s3 1.1 3 3.4v6c0 2.3-.9 3.4-3 3.4s-3-1.1-3-3.4v-6zm4-.5c0-.8-.4-1.2-1-1.2s-1 .4-1 1.2v7c0 .8.4 1.2 1 1.2s1-.4 1-1.2v-7zM23.5 15.7h-1.7v-1.2c.9-.5 1.8-1 2.5-1.6h1.1v12.6h-1.9v-9.8zM30.9 22v1c0 .7.4 1.1.9 1.1.7 0 1-.4 1-1.5v-2.8c0-.8-.4-1.1-.9-1.1-.6 0-1 .4-1.1.9h-1.6c.1-1.9.2-3.5.2-6.4h5.1l-.1 1.8h-3.3l-.1 2.7c.5-.6 1-.7 1.6-.7 1.6 0 2.3 1.2 2.3 3.3V22c0 2.6-.8 3.9-2.9 3.9-1.7 0-3-.8-3-2.8V22h1.9z"/></g></g></svg>