<svg id="Layer_1" xmlns="http://www.w3.org/2000/svg" viewBox="0 0 258.1 28.8"><style>.st0{enable-background:new}.st1{fill:#f15c2b}.st2{opacity:.5;enable-background:new}.st3{fill:#00539b}.st4{fill:#fbb945}.st5{fill:#0365b1}</style><title>expenses-footer</title><g class="st0"><path d="M19.3 2.5h1.1v4.9c0 .5.2.7.6.7s.6-.2.6-.7V2.5h1.1v4.9c0 1.1-.7 1.7-1.7 1.7s-1.7-.6-1.7-1.7V2.5zM23.9 9V2.5h1l1.4 3.7V2.5h1V9h-1l-1.4-4v4h-1zM30.7 4.7v-.5c0-.5-.3-.8-.5-.8-.5 0-.6.2-.6.7v3.3c0 .5.1.7.6.7.4 0 .5-.2.5-.7v-.7h1.1v.7c0 .9-.5 1.7-1.7 1.7s-1.7-.7-1.7-1.7V4.1c0-.9.5-1.7 1.7-1.7 1.1 0 1.7.8 1.7 1.8v.5h-1.1zM32.9 4.1c0-.9.5-1.7 1.7-1.7s1.7.7 1.7 1.7v3.3c0 .9-.5 1.7-1.7 1.7s-1.7-.7-1.7-1.7V4.1zm1.2 3.3c0 .5.1.7.6.7s.6-.2.6-.7V4.1c0-.5-.1-.7-.6-.7s-.6.2-.6.7v3.3zM37.4 9V2.5h1.1V8h1.8v1h-2.9zM41 9V2.5h1.1V8h1.8v1H41zM44.6 9V2.5h3v1h-1.9v1.7h1.5v1h-1.5v1.9h2v1h-3.1zM50.9 4.7v-.5c0-.5-.3-.8-.5-.8-.5 0-.6.2-.6.7v3.3c0 .5.1.7.6.7.4 0 .5-.2.5-.7v-.7H52v.7c0 .9-.5 1.7-1.7 1.7s-1.7-.7-1.7-1.7V4.1c0-.9.5-1.7 1.7-1.7 1.1 0 1.7.8 1.7 1.8v.5h-1.1z"/></g><path d="M53.8 3.5h-1.1v-1H56v1h-1.1V9h-1.1V3.5z" class="st0"/><g class="st0"><path d="M57.2 9h-1.1l1.2-6.5h1.4L59.9 9h-1.1l-.2-1.4h-1.2L57.2 9zm.3-2.4h.9L58 3.8l-.5 2.8zM60.5 2.5h1.7c1.2 0 1.7.6 1.7 1.7 0 .6-.2 1.1-.8 1.4.6.3.9.7.9 1.5 0 1.1-.5 1.9-1.8 1.9h-1.8V2.5zm1.2 2.7h.4c.4 0 .8-.3.8-.8 0-.6-.2-.9-.7-.9h-.4v1.7zm0 2.9h.5c.6 0 .8-.3.8-1s-.3-1-.9-1h-.4v2zM65 9V2.5h1.1V8h1.8v1H65zM68.6 9V2.5h3v1h-1.9v1.7h1.5v1h-1.5v1.9h2v1h-3.1zM74.8 9V2.5H76V9h-1.2zM77.9 3.5h-1.1v-1h3.3v1H79V9h-1.1V3.5zM80.7 9V2.5h3v1h-1.9v1.7h1.5v1h-1.5v1.9h2v1h-3.1zM89.3 2.5V9h-1V4l-1 5.1h-.5l-1-5.1v5h-1V2.5h1.5l.7 3.8.8-3.8h1.5zM92.4 4.1c0-.6-.3-.7-.6-.7-.4 0-.6.2-.6.6 0 1.1 2.3 1.6 2.3 3.4 0 1.1-.7 1.7-1.8 1.7-1 0-1.6-.8-1.7-1.8l1.1-.2c0 .7.3 1 .7 1 .4 0 .7-.2.7-.6 0-1.3-2.3-1.6-2.3-3.5 0-1 .6-1.6 1.7-1.6.9 0 1.5.7 1.6 1.6l-1.1.1zM98.1 2.4c-.7 1-1.1 2.3-1.1 3.7s.4 2.6 1.1 3.7h-.9c-.7-1-1.1-2.4-1.1-3.7 0-1.3.4-2.7 1.1-3.7h.9zM98.8 9v-.8c1.4-2 2.2-3.1 2.2-4.1 0-.5-.2-.7-.5-.7-.4 0-.5.3-.5.7v.4h-1.1v-.4c0-1 .6-1.7 1.7-1.7.9 0 1.5.7 1.5 1.4 0 1-.3 1.8-2.1 4.2h2v1h-3.2zM104.4 2.5c.8 0 1.5.7 1.5 1.5s-.7 1.5-1.5 1.5-1.5-.7-1.5-1.5.6-1.5 1.5-1.5zm0 2.3c.4 0 .8-.3.8-.8s-.3-.8-.8-.8-.8.3-.8.8.3.8.8.8zm3.8-2.4l-3.7 6.7h-.7l3.7-6.7h.7zm-.7 3.7c.8 0 1.5.7 1.5 1.5s-.6 1.4-1.5 1.4c-.8 0-1.5-.7-1.5-1.5s.7-1.4 1.5-1.4zm0 2.2c.4 0 .8-.3.8-.8s-.3-.8-.8-.8c-.4 0-.8.3-.8.8s.4.8.8.8zM110.6 2.4c.7 1 1.1 2.4 1.1 3.7 0 1.3-.4 2.7-1.1 3.7h-.9c.7-1 1.1-2.3 1.1-3.7s-.4-2.6-1.1-3.7h.9z"/></g><g class="st0"><path d="M19.3 19.8H21c1.2 0 1.8.6 1.8 2v2.6c0 1.3-.6 2-1.8 2h-1.7v-6.6zm1.1 5.6h.4c.6 0 .8-.2.8-.9v-2.8c0-.7-.2-.9-.8-.9h-.4v4.6zM23.9 26.3v-6.5h3v1H25v1.7h1.5v1H25v1.9h2v1h-3.1zM30.2 19.8h1.1l-1.4 6.5h-1.1l-1.4-6.5h1.1l.8 4.5.9-4.5zM31.9 26.3v-6.5h3v1H33v1.7h1.5v1H33v1.9h2v1h-3.1zM35.9 26.3v-6.5H37v5.5h1.8v1h-2.9zM39.5 21.4c0-.9.5-1.7 1.7-1.7s1.7.7 1.7 1.7v3.3c0 .9-.5 1.7-1.7 1.7s-1.7-.7-1.7-1.7v-3.3zm1.1 3.3c0 .5.1.7.6.7s.6-.2.6-.7v-3.3c0-.5-.1-.7-.6-.7s-.6.2-.6.7v3.3zM44 26.3v-6.5h1.6c1.4 0 2 .5 2 1.9s-.6 1.9-2 1.9h-.5v2.7H44zm1.2-3.6h.4c.7 0 1-.2 1-1s-.2-1-1-1h-.4v2zM53.1 19.8v6.5h-1v-5.1l-1 5.1h-.5l-1-5.1v5.1h-1v-6.5H50l.8 3.8.8-3.8h1.5zM54.1 26.3v-6.5h3v1h-1.9v1.7h1.5v1h-1.5v1.9h2v1h-3.1zM58.2 26.3v-6.5h1l1.4 3.7v-3.7h1v6.5h-1l-1.4-4.1v4.1h-1zM63.4 20.8h-1.1v-1h3.3v1h-1.1v5.5h-1.1v-5.5zM70 19.7c-.7 1-1.1 2.3-1.1 3.7s.4 2.6 1.1 3.7h-.9c-.7-1-1.1-2.4-1.1-3.7 0-1.3.4-2.7 1.1-3.7h.9zM71.4 22.9c-.4-.3-.6-.8-.6-1.3 0-1.3.6-1.8 1.5-1.8s1.5.6 1.5 1.8c0 .5-.2 1-.6 1.3.6.4.7.9.7 1.7 0 1.2-.5 1.9-1.6 1.9s-1.6-.7-1.6-1.9c0-.9.1-1.4.7-1.7zm1.5 1.5c0-.7-.1-1.1-.6-1.1s-.6.4-.6 1.1.1 1.1.6 1.1.6-.4.6-1.1zm-.1-2.9c0-.6-.1-.9-.5-.9s-.5.3-.5.9c0 .6.1.9.5.9s.5-.3.5-.9zM76.2 19.8c.8 0 1.5.7 1.5 1.5s-.7 1.5-1.5 1.5-1.5-.7-1.5-1.5.7-1.5 1.5-1.5zm0 2.3c.4 0 .8-.3.8-.8s-.3-.8-.8-.8-.8.3-.8.8.4.8.8.8zm3.8-2.4l-3.7 6.7h-.7l3.7-6.7h.7zm-.6 3.7c.8 0 1.5.7 1.5 1.5s-.7 1.5-1.5 1.5-1.5-.7-1.5-1.5c0-.9.7-1.5 1.5-1.5zm0 2.2c.4 0 .8-.3.8-.8s-.3-.8-.8-.8c-.4 0-.8.3-.8.8s.4.8.8.8zM82.5 19.7c.7 1 1.1 2.4 1.1 3.7 0 1.3-.4 2.7-1.1 3.7h-.9c.7-1 1.1-2.3 1.1-3.7s-.4-2.6-1.1-3.7h.9z"/></g><g class="st0"><path d="M158.1 2.5V9h-1V4l-1 5.1h-.5l-1-5.1v5h-1V2.5h1.5l.8 3.8.8-3.8h1.4zM159.8 9h-1.1l1.2-6.5h1.4l1.2 6.5h-1.1l-.2-1.4H160l-.2 1.4zm.4-2.4h.9l-.4-2.8-.5 2.8zM163.2 9V2.5h1l1.4 3.7V2.5h1V9h-1l-1.3-4v4h-1.1zM168.4 9h-1.1l1.2-6.5h1.4l1.2 6.5H170l-.2-1.4h-1.2l-.2 1.4zm.4-2.4h.9l-.4-2.8-.5 2.8zM173.4 5.7h1.8V9h-.5l-.2-.5c-.3.4-.6.6-1.1.6-.9 0-1.5-.6-1.5-1.7V4.1c0-.9.5-1.7 1.7-1.7 1.1 0 1.7.8 1.7 1.8v.4h-1.1c0-1-.2-1.2-.6-1.2-.3 0-.5.2-.5.7v3.3c0 .4.1.7.5.7.5 0 .6-.3.6-.9v-.6h-.7v-.9zM176.3 9V2.5h3v1h-1.9v1.7h1.5v1h-1.5v1.9h2v1h-3.1zM184.9 2.5V9h-1V4l-1 5.1h-.5l-1-5.1v5h-1V2.5h1.5l.8 3.8.8-3.8h1.4zM185.9 9V2.5h3v1H187v1.7h1.5v1H187v1.9h2v1h-3.1zM190 9V2.5h1l1.4 3.7V2.5h1V9h-1L191 5v4h-1zM195.2 3.5h-1.1v-1h3.3v1h-1.1V9h-1.1V3.5zM204.1 6.1c-.1.6-.4 1.1-.6 1.7.2.2.4.3.6.3v1c-.5 0-.9-.2-1.3-.5-.4.3-.7.5-1.3.5-1 0-1.6-.6-1.6-1.5 0-.7.4-1.4.9-1.8-.2-.5-.5-1.2-.5-1.8 0-.9.5-1.5 1.4-1.5.8 0 1.3.5 1.3 1.4 0 .8-.6 1.4-1.1 2 .2.5.5.9.8 1.3.2-.4.3-.8.4-1.2l1 .1zm-2.4 2c.2 0 .3 0 .5-.2-.3-.4-.7-.8-.9-1.3-.2.3-.3.5-.3.8 0 .4.3.7.7.7zm-.1-3.1c.3-.3.5-.7.5-1.2s-.1-.7-.4-.7c-.3 0-.4.2-.4.6 0 .4.1.9.3 1.3zM208.7 5.7h1.8V9h-.5l-.2-.5c-.3.4-.6.6-1.1.6-.9 0-1.5-.6-1.5-1.7V4.1c0-.9.5-1.7 1.7-1.7 1.1 0 1.7.8 1.7 1.8v.4h-1.1c0-1-.2-1.2-.6-1.2-.3 0-.5.2-.5.7v3.3c0 .4.1.7.5.7.5 0 .6-.3.6-.9v-.6h-.7v-.9zM211.7 9V2.5h3v1h-1.9v1.7h1.5v1h-1.5v1.9h2v1h-3.1zM215.7 9V2.5h1l1.4 3.7V2.5h1V9h-1l-1.3-4v4h-1.1zM220.3 9V2.5h3v1h-1.9v1.7h1.5v1h-1.5v1.9h2v1h-3.1zM225.4 9h-1.1V2.5h1.6c1.3 0 1.9.5 1.9 1.9 0 1-.4 1.5-.8 1.6l1 2.9h-1.1l-.9-2.6h-.6V9zm0-3.6h.4c.6 0 .8-.2.8-1s-.2-1-.8-1h-.4v2zM229.5 9h-1.1l1.2-6.5h1.4l1.2 6.5h-1.1l-.2-1.4h-1.2l-.2 1.4zm.4-2.4h.9l-.4-2.8-.5 2.8zM232.8 9V2.5h1.1V8h1.8v1h-2.9zM240.1 2.4c-.7 1-1.1 2.3-1.1 3.7s.4 2.6 1.1 3.7h-.9c-.7-1-1.1-2.4-1.1-3.7 0-1.3.4-2.7 1.1-3.7h.9zM242 3.9h-.9v-.6c.5-.3 1-.5 1.3-.8h.6V9h-1V3.9zM246.1 3.9h-.9v-.6c.5-.3 1-.5 1.3-.8h.6V9h-1V3.9zM250.4 2.5c.8 0 1.5.7 1.5 1.5s-.7 1.5-1.5 1.5-1.5-.7-1.5-1.5.7-1.5 1.5-1.5zm0 2.3c.4 0 .8-.3.8-.8s-.3-.8-.8-.8c-.4 0-.8.3-.8.8s.4.8.8.8zm3.8-2.4l-3.7 6.7h-.7l3.7-6.7h.7zm-.6 3.7c.8 0 1.5.7 1.5 1.5s-.7 1.4-1.5 1.4-1.5-.7-1.5-1.5.7-1.4 1.5-1.4zm0 2.2c.4 0 .8-.3.8-.8s-.3-.8-.8-.8c-.4 0-.8.3-.8.8s.4.8.8.8zM256.7 2.4c.7 1 1.1 2.4 1.1 3.7 0 1.3-.4 2.7-1.1 3.7h-.9c.7-1 1.1-2.3 1.1-3.7s-.4-2.6-1.1-3.7h.9z"/></g><g class="st0"><path d="M153.6 26.3v-6.5h1.6c1.4 0 2 .5 2 1.9s-.6 1.9-2 1.9h-.5v2.7h-1.1zm1.2-3.6h.4c.7 0 1-.2 1-1s-.2-1-1-1h-.4v2zM159.3 26.3h-1.1v-6.5h1.6c1.3 0 1.9.5 1.9 1.9 0 1-.4 1.5-.8 1.6l1 2.9h-1.1l-.8-2.7h-.6v2.8zm0-3.6h.4c.6 0 .8-.2.8-1s-.2-1-.8-1h-.4v2zM162.7 21.4c0-.9.5-1.7 1.7-1.7s1.7.7 1.7 1.7v3.3c0 .9-.5 1.7-1.7 1.7s-1.7-.7-1.7-1.7v-3.3zm1.1 3.3c0 .5.1.7.6.7s.6-.2.6-.7v-3.3c0-.5-.1-.7-.6-.7s-.6.2-.6.7v3.3zM168.8 23h1.8v3.3h-.5l-.2-.5c-.3.4-.6.6-1.1.6-.9 0-1.5-.6-1.5-1.7v-3.3c0-.9.5-1.7 1.7-1.7 1.1 0 1.7.8 1.7 1.8v.4h-1.1c0-1-.2-1.2-.6-1.2-.3 0-.5.2-.5.7v3.3c0 .4.1.7.5.7.5 0 .6-.3.6-.9v-.6h-.7V23zM172.9 26.3h-1.1v-6.5h1.6c1.3 0 1.9.5 1.9 1.9 0 1-.4 1.5-.8 1.6l1 2.9h-1.1l-.8-2.7h-.6v2.8zm0-3.6h.4c.6 0 .8-.2.8-1s-.2-1-.8-1h-.4v2zM177 26.3h-1.1l1.2-6.5h1.4l1.2 6.5h-1.1l-.2-1.4h-1.2l-.2 1.4zm.4-2.4h.9l-.4-2.8-.5 2.8zM184.9 19.8v6.5h-1v-5.1l-1 5.1h-.5l-1-5.1v5.1h-1v-6.5h1.5l.8 3.8.8-3.8h1.4zM188 21.4c0-.6-.3-.7-.6-.7-.4 0-.6.2-.6.6 0 1.1 2.3 1.6 2.3 3.4 0 1.1-.7 1.7-1.8 1.7-1 0-1.6-.8-1.7-1.8l1.1-.2c0 .7.3 1 .7 1 .4 0 .7-.2.7-.6 0-1.3-2.3-1.6-2.3-3.5 0-1 .6-1.6 1.7-1.6.9 0 1.5.7 1.6 1.6l-1.1.1zM193.7 19.7c-.7 1-1.1 2.3-1.1 3.7s.4 2.6 1.1 3.7h-.9c-.7-1-1.1-2.4-1.1-3.7 0-1.3.4-2.7 1.1-3.7h.9zM194.5 20.7v-.9h3v.6l-1.3 5.9H195l1.3-5.6h-1.8zM199.5 24.6v.3c0 .4.1.6.5.6s.5-.2.5-.6v-1.5c-.3.3-.5.4-.9.4-.7 0-1.2-.4-1.2-1.3v-.8c0-1.4.5-2 1.6-2s1.6.6 1.6 1.8v3.1c0 1.2-.5 1.8-1.6 1.8-.9 0-1.5-.6-1.5-1.4v-.4h1zm1.1-3.4c0-.4-.2-.6-.5-.6s-.5.2-.5.6v1.1c0 .4.2.6.5.6.2 0 .4-.2.6-.3v-1.4zM204 19.8c.8 0 1.5.7 1.5 1.5s-.7 1.5-1.5 1.5-1.5-.7-1.5-1.5.7-1.5 1.5-1.5zm0 2.3c.4 0 .8-.3.8-.8s-.3-.8-.8-.8c-.4 0-.8.3-.8.8s.4.8.8.8zm3.8-2.4l-3.7 6.7h-.7l3.7-6.7h.7zm-.6 3.7c.8 0 1.5.7 1.5 1.5s-.7 1.5-1.5 1.5-1.5-.7-1.5-1.5c0-.9.6-1.5 1.5-1.5zm0 2.2c.4 0 .8-.3.8-.8s-.3-.8-.8-.8-.8.3-.8.8.4.8.8.8zM210.3 19.7c.7 1 1.1 2.4 1.1 3.7 0 1.3-.4 2.7-1.1 3.7h-.9c.7-1 1.1-2.3 1.1-3.7s-.4-2.6-1.1-3.7h.9z"/></g><path class="st1" d="M0 0h14.9v11.5H0z"/><path class="st2 st3" d="M0 17.3h14.9v11.5H0z"/><path class="st4" d="M134.3 0h14.9v11.5h-14.9z"/><path class="st5" d="M134.3 17.3h14.9v11.5h-14.9z"/></svg>