<svg id="Layer_1" data-name="Layer 1" xmlns="http://www.w3.org/2000/svg" viewBox="0 0 299 299"><defs><style>.cls-1{fill:#fff}.cls-2{fill:#0065b0}</style></defs><title>house</title><path class="cls-1" d="M156.75 246.75h299v299h-299v-299zm146 2.57c-36.38.54-71 14.26-99.51 42.37-28.64 28.26-43.42 62.85-43.76 103.06s13.69 75.32 41.94 104.17 63 43.72 103.39 44.12 75.55-13.78 104.42-42.21 43.51-63 43.86-103.25c.69-82.52-65.66-148-150.37-148.26z" transform="translate(-156.75 -246.75)"/><path class="cls-2" d="M302.72 249.32c84.71.26 151.05 65.74 150.34 148.25-.35 40.26-15.12 75-43.86 103.25s-64 42.61-104.42 42.21-75.1-15.24-103.39-44.12-42.29-63.87-41.94-104.17 15.12-74.8 43.76-103.06c28.49-28.1 63.14-41.82 99.51-42.36zm3.5 270c67.83.18 122.42-54.93 123.14-121.59.74-69.1-55.06-123.93-121.66-124.61-69.06-.71-124 55.1-124.59 121.82-.64 68.93 55.37 124.65 123.12 124.39z" transform="translate(-156.75 -246.75)"/><path class="cls-1" d="M306.23 519.33c-67.75.25-123.76-55.46-123.11-124.38.63-66.72 55.52-122.53 124.59-121.82 66.6.68 122.4 55.51 121.66 124.61-.72 66.67-55.32 121.77-123.14 121.59zM231.7 385l.36.14v77.56H379c2 0 2 0 2-1.94v-76.23c1.87 1.34 3.46 2.44 5 3.59 1.89 1.41 1.88 1.43 3.43-.23.2-.21.41-.41.61-.63l4.75-5.32c-.34-.31-.57-.54-.83-.74l-14.56-11.66c-4.69-3.76-9.35-7.55-14.09-11.25a3 3 0 0 1-1.33-2.69v-24.74c0-1.09-.32-1.44-1.42-1.43q-8.37.07-16.75 0c-1.15 0-1.39.4-1.38 1.46.05 3.67 0 7.33 0 11 0 .42-.06.84-.1 1.48-3.19-2.27-6.17-4.35-9.11-6.47-4.93-3.55-9.83-7.15-14.77-10.69q-6.39-4.59-12.85-9.09a1.59 1.59 0 0 0-1.45.08c-3.7 2.65-7.34 5.37-11 8-5.88 4.28-11.78 8.53-17.66 12.82S265.86 346.7 260 351c-4.94 3.61-9.92 7.16-14.86 10.77q-10.26 7.5-20.49 15l-6.88 5.09a7.51 7.51 0 0 0 .57 1c1.89 2.41 3.79 4.8 5.69 7.2a.94.94 0 0 0 1.57.15c.68-.61 1.37-1.21 2.07-1.8z" transform="translate(-156.75 -246.75)"/><path class="cls-2" d="M231.7 385l-4.06 3.43c-.7.59-1.39 1.19-2.07 1.8a.94.94 0 0 1-1.57-.15c-1.9-2.4-3.8-4.79-5.69-7.2a7.51 7.51 0 0 1-.57-1l6.88-5.09q10.24-7.52 20.49-15c4.96-3.64 9.89-7.19 14.89-10.79 5.87-4.29 11.7-8.63 17.57-12.92s11.78-8.54 17.66-12.82c3.67-2.68 7.31-5.4 11-8a1.59 1.59 0 0 1 1.45-.08q6.47 4.49 12.85 9.09c4.93 3.55 9.84 7.14 14.77 10.69 2.94 2.12 5.91 4.2 9.11 6.47 0-.64.1-1.06.1-1.48v-11c0-1.05.23-1.47 1.38-1.46q8.37.08 16.75 0c1.1 0 1.43.33 1.42 1.43v24.74a3 3 0 0 0 1.33 2.69c4.74 3.69 9.4 7.49 14.09 11.25L394 381.23c.25.2.48.43.83.74l-4.75 5.32c-.19.22-.41.42-.61.63-1.55 1.66-1.54 1.64-3.43.23-1.55-1.16-3.14-2.26-5-3.59v76.23c0 1.94 0 1.94-2 1.94h-147v-77.54z" transform="translate(-156.75 -246.75)"/></svg>