<svg id="Layer_1" xmlns="http://www.w3.org/2000/svg" xmlns:xlink="http://www.w3.org/1999/xlink" viewBox="0 0 188.3 47.5"><style>.st0{enable-background:new}.st1{fill:#0365b1}.st2{fill:#f15c2b}.st3{fill:#fff}</style><title>revenue-header</title><g id="Layer_1_1_"><g class="st0"><path class="st1" d="M53 34.8h-5.2V5H55c5.8 0 8.7 2.4 8.7 8.8 0 4.8-1.9 6.7-3.6 7.5l4.4 13.5h-5.2l-3.7-12.3c-.6 0-1.6.1-2.6.1v12.2zm0-16.5h1.8c2.8 0 3.8-1 3.8-4.6 0-3.5-1-4.6-3.8-4.6H53v9.2zM68.7 34.8V5h13.8v4.5h-8.7v7.7h6.7v4.5h-6.7v8.7H83v4.5H68.7zM97.7 5h5.1l-6.3 29.8h-5.2L85.1 5h5.1l3.7 20.7h.1L97.7 5zM105.7 34.8V5h13.8v4.5h-8.7v7.7h6.7v4.5h-6.7v8.7h9.2v4.5h-14.3zM124.2 34.8V5h4.8l6.3 17h.1V5h4.7v29.8h-4.5L129 16.2h-.1v18.6h-4.7zM145 5h5.2v22.5c0 2.2.9 3.3 2.7 3.3s2.8-1.1 2.8-3.3V5h5.2v22.3c0 5.1-3 7.9-7.9 7.9s-7.9-2.8-7.9-7.9V5zM165.9 34.8V5h13.8v4.5H171v7.7h6.7v4.5H171v8.7h9.2v4.5h-14.3z"/></g><image width="213" height="205" xlink:href="8CD0957C9B3B84C0.png" transform="scale(.2321 .2318)" overflow="visible" opacity=".75"/><path class="st2" d="M4 4h34.4v32.5H4"/><g class="st0"><path class="st3" d="M6.1 25.6v-1.7c2.7-3.9 4.2-6 4.2-7.9 0-1-.4-1.4-1-1.4-.7 0-1 .5-1 1.3v.8H6.2v-.6c0-1.8 1.2-3.2 3.2-3.2 1.8 0 2.9 1.3 2.9 2.8 0 2-.6 3.4-4 8.1h3.8v1.8h-6zM13.9 16.3c0-2.3.9-3.4 3.1-3.4s3.1 1.1 3.1 3.4v6c0 2.3-.9 3.4-3.1 3.4s-3.1-1.1-3.1-3.4v-6zm4.1-.5c0-.8-.4-1.2-1-1.2s-1 .4-1 1.2v7c0 .8.4 1.2 1 1.2s1-.4 1-1.2v-7zM23.9 15.7h-1.7v-1.2c1-.5 1.8-1 2.6-1.6h1.1v12.6h-2v-9.8zM31.4 22v1c0 .7.4 1.1 1 1.1.7 0 1.1-.4 1.1-1.5v-2.8c0-.8-.4-1.1-.9-1.1-.7 0-1 .4-1.2.9h-1.7c.1-1.9.2-3.5.2-6.4h5.2l-.1 1.7h-3.4l-.1 2.7c.5-.6 1-.7 1.7-.7 1.7 0 2.3 1.2 2.3 3.3v1.7c0 2.6-.8 3.9-2.9 3.9-1.7 0-3.1-.8-3.1-2.8v-1h1.9z"/></g></g></svg>